<svg width="1024" height="1024" viewBox="0 0 1024 1024" fill="none" xmlns="http://www.w3.org/2000/svg">
  <rect width="1024" height="1024" rx="224" fill="#040507"/>
  <rect x="56" y="56" width="912" height="912" rx="188" stroke="rgba(196,148,40,0.10)" stroke-width="2"/>

  <circle cx="512" cy="512" r="272" stroke="url(#ring)" stroke-width="18"/>
  <circle cx="512" cy="512" r="206" stroke="rgba(196,148,40,0.14)" stroke-width="3"/>
  <path d="M240 512H784" stroke="rgba(196,148,40,0.12)" stroke-width="2"/>
  <path d="M512 240V784" stroke="rgba(196,148,40,0.10)" stroke-width="2"/>

  <!-- A: pen-nib apex, missile silhouette, resolute weight -->
  <path d="M390 710L436 396H588L634 710" stroke="url(#mark)" stroke-width="50" stroke-linecap="square" stroke-linejoin="miter"/>
  <path d="M476 396L512 282L548 396" stroke="url(#mark)" stroke-width="50" stroke-linecap="square" stroke-linejoin="miter"/>
  <rect x="466" y="432" width="92" height="166" rx="8" fill="url(#core)"/>
  <rect x="414" y="720" width="196" height="30" rx="4" fill="#B88718"/>

  <path d="M308 784H716" stroke="url(#base)" stroke-width="14" stroke-linecap="square"/>

  <path d="M176 232H236V172" stroke="rgba(196,148,40,0.36)" stroke-width="8" stroke-linecap="square"/>
  <path d="M848 172H788V232" stroke="rgba(196,148,40,0.36)" stroke-width="8" stroke-linecap="square"/>
  <path d="M176 792H236V852" stroke="rgba(196,148,40,0.20)" stroke-width="6" stroke-linecap="square"/>
  <path d="M848 852H788V792" stroke="rgba(196,148,40,0.20)" stroke-width="6" stroke-linecap="square"/>

  <defs>
    <linearGradient id="ring" x1="284" y1="252" x2="744" y2="772" gradientUnits="userSpaceOnUse">
      <stop stop-color="#E2C879"/>
      <stop offset="0.56" stop-color="#C49428"/>
      <stop offset="1" stop-color="#8B6313"/>
    </linearGradient>
    <linearGradient id="mark" x1="420" y1="286" x2="608" y2="714" gradientUnits="userSpaceOnUse">
      <stop stop-color="#EDE0B3"/>
      <stop offset="0.45" stop-color="#C49428"/>
      <stop offset="1" stop-color="#7A5612"/>
    </linearGradient>
    <linearGradient id="core" x1="512" y1="432" x2="512" y2="598" gradientUnits="userSpaceOnUse">
      <stop stop-color="#F4E8CA"/>
      <stop offset="1" stop-color="#C49428"/>
    </linearGradient>
    <linearGradient id="base" x1="308" y1="784" x2="716" y2="784" gradientUnits="userSpaceOnUse">
      <stop stop-color="#735311"/>
      <stop offset="0.5" stop-color="#C49428"/>
      <stop offset="1" stop-color="#735311"/>
    </linearGradient>
  </defs>
</svg>
